<?xml version="1.0" encoding="UTF-8"?>
<svg xmlns="http://www.w3.org/2000/svg" width="512" height="512" viewBox="0 0 512 512">
  <defs>
    <radialGradient id="g1" cx="18%" cy="18%" r="52%">
      <stop offset="0%" stop-color="#22c983" stop-opacity="0.32"/>
      <stop offset="100%" stop-color="#22c983" stop-opacity="0"/>
    </radialGradient>
    <radialGradient id="g2" cx="78%" cy="20%" r="56%">
      <stop offset="0%" stop-color="#0ea5e9" stop-opacity="0.26"/>
      <stop offset="100%" stop-color="#0ea5e9" stop-opacity="0"/>
    </radialGradient>
    <radialGradient id="g3" cx="58%" cy="92%" r="55%">
      <stop offset="0%" stop-color="#f43f5e" stop-opacity="0.13"/>
      <stop offset="100%" stop-color="#f43f5e" stop-opacity="0"/>
    </radialGradient>
    <linearGradient id="tile" x1="18%" y1="8%" x2="88%" y2="94%">
      <stop offset="0%" stop-color="rgba(255,255,255,0.09)"/>
      <stop offset="100%" stop-color="rgba(255,255,255,0.025)"/>
    </linearGradient>
    <linearGradient id="aurora-a" x1="0%" y1="50%" x2="100%" y2="50%">
      <stop offset="0%" stop-color="#22c983" stop-opacity="0"/>
      <stop offset="48%" stop-color="#22c983" stop-opacity="0.98"/>
      <stop offset="100%" stop-color="#2dd4bf" stop-opacity="0"/>
    </linearGradient>
    <linearGradient id="aurora-b" x1="0%" y1="50%" x2="100%" y2="50%">
      <stop offset="0%" stop-color="#2dd4bf" stop-opacity="0"/>
      <stop offset="48%" stop-color="#2dd4bf" stop-opacity="0.90"/>
      <stop offset="100%" stop-color="#0ea5e9" stop-opacity="0"/>
    </linearGradient>
    <filter id="soft" x="-20%" y="-60%" width="140%" height="220%">
      <feGaussianBlur stdDeviation="11.264"/>
    </filter>
    <filter id="glow" x="-45%" y="-100%" width="190%" height="300%">
      <feGaussianBlur stdDeviation="16.3328" result="blur"/>
      <feMerge>
        <feMergeNode in="blur"/>
        <feMergeNode in="SourceGraphic"/>
      </feMerge>
    </filter>
  </defs>
  <rect width="512" height="512" fill="#030208"/>
  <rect width="512" height="512" fill="url(#g1)"/>
  <rect width="512" height="512" fill="url(#g2)"/>
  <rect width="512" height="512" fill="url(#g3)"/>
  <path d="M 25.6 337.92 C 153.6 240.64, 276.48 399.36, 481.28 194.56" fill="none" stroke="#22c983" stroke-opacity="0.10" stroke-width="33.28" filter="url(#soft)"/>
  <rect x="56.32" y="56.32" width="399.36" height="399.36" rx="97.28" fill="rgba(8, 6, 22, 0.58)" stroke="rgba(255, 255, 255, 0.09)" stroke-width="2.048"/>
  <rect x="56.32" y="56.32" width="399.36" height="399.36" rx="97.28" fill="url(#tile)" opacity="0.72"/>
  <g filter="url(#glow)">
    <rect x="-15.564799999999998" y="180.1216" width="543.1296000000001" height="53.76" rx="26.88" fill="url(#aurora-a)" transform="rotate(-16 256 256)"/>
    <rect x="-7.577600000000004" y="263.98720000000003" width="527.1552" height="46.233599999999996" rx="26.88" fill="url(#aurora-b)" transform="rotate(14 256 256)"/>
  </g>
  <rect x="72.2944" y="72.2944" width="367.4112" height="367.4112" rx="79.7696" fill="none" stroke="rgba(255,255,255,0.08)" stroke-width="2.048"/>
</svg>